<svg xmlns="http://www.w3.org/2000/svg" width="71" height="16" viewBox="0 0 660.69 147.62"><defs><style>.cls-1{fill:#7f7e7c;}</style></defs><g id="Layer_2" data-name="Layer 2"><g id="Layer_1-2" data-name="Layer 1"><path id="big" class="cls-1" d="M226.51,88.35l-4.61,20.54h9.22ZM274.45,82h-8.51v37.41h8.36c7.2,0,9-2.52,9-7.79V90C283.31,84.74,282.16,82,274.45,82Zm0,0h-8.51v37.41h8.36c7.2,0,9-2.52,9-7.79V90C283.31,84.74,282.16,82,274.45,82Zm-47.94,6.35-4.61,20.54h9.22Zm0,0-4.61,20.54h9.22ZM274.45,82h-8.51v37.41h8.36c7.2,0,9-2.52,9-7.79V90C283.31,84.74,282.16,82,274.45,82Zm0,0h-8.51v37.41h8.36c7.2,0,9-2.52,9-7.79V90C283.31,84.74,282.16,82,274.45,82Zm-47.94,6.35-4.61,20.54h9.22Zm0,0-4.61,20.54h9.22ZM274.45,82h-8.51v37.41h8.36c7.2,0,9-2.52,9-7.79V90C283.31,84.74,282.16,82,274.45,82Zm0,0h-8.51v37.41h8.36c7.2,0,9-2.52,9-7.79V90C283.31,84.74,282.16,82,274.45,82Zm-47.94,6.35-4.61,20.54h9.22Zm0,0-4.61,20.54h9.22ZM274.45,82h-8.51v37.41h8.36c7.2,0,9-2.52,9-7.79V90C283.31,84.74,282.16,82,274.45,82ZM500.2,82h-4v19.82h3.88c7.21,0,9.59-2.45,9.59-7.71V90C509.64,84.74,507.91,82,500.2,82Zm0,0h-4v19.82h3.88c7.21,0,9.59-2.45,9.59-7.71V90C509.64,84.74,507.91,82,500.2,82ZM274.45,82h-8.51v37.41h8.36c7.2,0,9-2.52,9-7.79V90C283.31,84.74,282.16,82,274.45,82Zm-47.94,6.35-4.61,20.54h9.22ZM144.91,54a73.81,73.81,0,1,0,0,39.6H171v54H642.69v-54h18V54Zm-71.1,55.81a36,36,0,1,1,36-36A36,36,0,0,1,73.81,109.82Zm162.65,18.6-2.81-9.8h-14.2l-2.89,9.8H206.33L221.68,73h9.88l15.14,55.43Zm56.8-16.29c0,11.47-5.77,16.29-19,16.29H256.07V72.92H274.3c13.41,0,19,4.82,19,16.58ZM320.65,129c-13.84,0-18.24-6.71-18.24-15.65h10c.22,4.26,2.09,6.56,8.44,6.56,6,0,8.72-2.52,8.72-8.79,0-6.56-7.79-6.56-13.7-7.35-6.27-.8-12.9-3.89-12.9-15.35,0-10.38,6.34-15.79,17.73-15.79,10,0,16.66,3.67,17.59,14.77h-10c-.28-4.68-2.74-6.05-7.57-6.05-5.48,0-7.71,1.73-7.71,7,0,7,5.54,6.41,14,7.7,6.42,1,12.55,3.61,12.55,14.71C339.54,123.6,334,129,320.65,129Zm57.3-.58-15.64-22.27H359.5v22.27h-9.87V72.92h9.94V96.28h2.67L376.8,72.92h11.6l-18.09,27.75,19.75,27.75Zm52.55.07H397.56V72.92h31.93v8.65h-22V95.84h18.74v8.94H407.5v14.63h23Zm44.25,0H441.82V72.92h31.92v8.65h-22V95.84H470.5v8.94H451.76v14.63h23Zm45-33.88c0,11.47-6.48,16.8-19.68,16.8h-3.81v17H486.08V72.92h14c13.42,0,19.68,4.82,19.68,16.58Zm43.18,33.88H530V72.92H561.9v8.65h-22V95.84h18.75v8.94H539.91v14.63h23Zm36-.07-11-19.53h-3.68v19.53h-9.95V72.92h14c13.41,0,19.68,4.9,19.68,16.65v2.88c0,8.22-2.88,12.69-9.59,14.85l12.18,21.12ZM588.36,82.07H584.1V99.73h4.11c7.21,0,9.23-2.52,9.23-7.78V90.08C597.44,84.81,596.07,82.07,588.36,82.07ZM500.2,82h-4v19.82h3.88c7.21,0,9.59-2.45,9.59-7.71V90C509.64,84.74,507.91,82,500.2,82ZM274.45,82h-8.51v37.41h8.36c7.2,0,9-2.52,9-7.79V90C283.31,84.74,282.16,82,274.45,82ZM221.9,108.89h9.22l-4.61-20.54Zm4.61-20.54-4.61,20.54h9.22ZM274.45,82h-8.51v37.41h8.36c7.2,0,9-2.52,9-7.79V90C283.31,84.74,282.16,82,274.45,82ZM500.2,82h-4v19.82h3.88c7.21,0,9.59-2.45,9.59-7.71V90C509.64,84.74,507.91,82,500.2,82Zm0,0h-4v19.82h3.88c7.21,0,9.59-2.45,9.59-7.71V90C509.64,84.74,507.91,82,500.2,82ZM274.45,82h-8.51v37.41h8.36c7.2,0,9-2.52,9-7.79V90C283.31,84.74,282.16,82,274.45,82Zm-47.94,6.35-4.61,20.54h9.22Zm0,0-4.61,20.54h9.22ZM274.45,82h-8.51v37.41h8.36c7.2,0,9-2.52,9-7.79V90C283.31,84.74,282.16,82,274.45,82Zm0,0h-8.51v37.41h8.36c7.2,0,9-2.52,9-7.79V90C283.31,84.74,282.16,82,274.45,82Zm-47.94,6.35-4.61,20.54h9.22Zm0,0-4.61,20.54h9.22ZM274.45,82h-8.51v37.41h8.36c7.2,0,9-2.52,9-7.79V90C283.31,84.74,282.16,82,274.45,82Zm0,0h-8.51v37.41h8.36c7.2,0,9-2.52,9-7.79V90C283.31,84.74,282.16,82,274.45,82Zm-47.94,6.35-4.61,20.54h9.22Zm0,0-4.61,20.54h9.22Zm0,0-4.61,20.54h9.22Z"/></g></g></svg>
